<?xml version="1.0" standalone="no"?>
<!DOCTYPE svg PUBLIC "-//W3C//DTD SVG 1.1//EN" "http://www.w3.org/Graphics/SVG/1.1/DTD/svg11.dtd">
<svg width="100%" height="100%" viewBox="0 0 120 34" version="1.1" xmlns="http://www.w3.org/2000/svg" xmlns:xlink="http://www.w3.org/1999/xlink" xml:space="preserve" style="fill-rule:evenodd;clip-rule:evenodd;stroke-linejoin:round;stroke-miterlimit:1.41421;">
    <path d="M116.34,1.28611C115.549,4.0561 114.164,5.34217 112.185,5.34217L110.305,5.34217L110.305,1.28611L109.811,1.28611C108.92,3.66039 107.832,5.04538 105.854,5.73788L105.854,6.33145L107.634,6.33145L107.634,14.0479C107.634,16.4221 108.426,17.3125 110.206,17.3125C111.493,17.3125 112.482,16.62 113.174,15.3339L113.273,15.0371L112.878,14.8393C112.383,15.4328 111.987,15.7296 111.493,15.7296C110.602,15.7296 110.305,15.1361 110.305,13.3554L110.305,6.33144L114.164,6.33144L114.164,14.0479C114.164,16.4221 114.955,17.3125 116.736,17.3125C118.22,17.3125 119.308,16.4221 120,14.7403L119.605,14.5425C119.011,15.3339 118.615,15.6307 118.022,15.6307C117.131,15.6307 116.835,15.0371 116.835,13.2564L116.835,6.33144L119.605,6.33144L119.605,5.34215L116.835,5.34215L116.835,1.28609L116.34,1.28609M32.3495,8.50787C33.2399,7.41966 34.1302,6.92502 35.0206,6.92502C36.2077,6.92502 36.6034,7.71645 36.6034,9.79394L36.6034,14.3446C36.6034,16.1254 36.3066,16.5211 35.1195,16.7189L35.1195,17.1146L40.8573,17.1146L40.8573,16.7189C39.6702,16.7189 39.3734,16.2243 39.3734,14.5425L39.3734,9.59609C39.3734,6.52931 38.3841,5.04539 36.2077,5.04539C34.9216,5.04539 33.5367,5.93575 32.3495,7.61753L32.3495,5.04539L31.8549,5.04539L27.9967,6.43039L28.0956,6.8261C28.2935,6.72718 28.4913,6.72718 28.5902,6.72718C29.3817,6.72718 29.5795,7.22182 29.5795,8.80467L29.5795,14.2457C29.5795,16.1254 29.3817,16.62 28.3924,16.62L28.3924,17.0157L33.8334,17.0157L33.8334,16.62C32.6463,16.62 32.3495,16.1254 32.3495,14.2457L32.3495,8.50789L32.3495,8.50787ZM67.7659,4.13e-05L67.1723,4.13e-05L63.2152,1.48396L63.3141,1.87967L63.512,1.87967C63.7098,1.87967 63.9077,1.78075 64.0066,1.78075C64.6991,1.78075 64.897,2.37432 64.897,3.85824L64.897,14.6414C64.897,16.1254 64.5013,16.62 63.4131,16.62L63.4131,17.0157L69.2498,17.0157L69.2498,16.62C68.1616,16.62 67.7659,16.0264 67.7659,14.6414L67.7659,3.6e-05L67.7659,4.13e-05ZM76.2737,5.14431C76.0758,5.34217 75.878,5.4411 75.6801,5.4411C75.4823,5.4411 75.2844,5.4411 74.6908,5.24324C74.0973,5.04538 73.8994,5.04538 73.5037,5.04538C71.2284,5.04538 69.6455,6.43038 69.6455,8.50787C69.6455,10.0907 70.0412,10.5854 72.4155,12.1682C75.0866,13.9489 75.0866,13.9489 75.0866,14.9382C75.0866,15.9275 74.2951,16.5211 73.3058,16.5211C71.6241,16.5211 70.7337,15.4329 70.1401,12.9596L69.7444,12.9596L69.7444,17.3125L70.2391,17.3125C70.4369,17.1146 70.6348,17.1146 70.8326,17.1146C70.9316,17.1146 71.0305,17.1146 71.2284,17.1146C72.5144,17.4114 72.8112,17.5103 73.4048,17.5103C75.7791,17.5103 77.5598,15.9275 77.5598,13.85C77.5598,12.2671 76.7683,11.3768 74.0973,9.79393C72.2176,8.70572 71.6241,8.11215 71.6241,7.32072C71.6241,6.52929 72.3166,6.03465 73.3058,6.03465C74.7898,6.03465 75.5812,6.82607 76.0758,9.10143L76.5705,9.10143L76.5705,5.1443L76.2737,5.1443L76.2737,5.14431ZM93.8829,4.13e-05L93.2893,4.13e-05L89.3322,1.48396L89.4311,1.87967C89.8268,1.78075 90.0247,1.78075 90.1236,1.78075C90.8161,1.78075 91.1129,2.37432 91.1129,3.85824L91.1129,14.6414C91.1129,16.1254 90.7172,16.62 89.629,16.62L89.629,17.0157L95.3668,17.0157L95.3668,16.62C94.2786,16.62 93.8829,16.1254 93.8829,14.6414L93.8829,3.6e-05L93.8829,4.13e-05ZM102.094,15.3339L102.094,15.8286C102.094,16.9168 102.193,17.1147 103.38,17.1147L106.348,17.1147L106.348,16.7189C105.161,16.7189 104.864,16.2243 104.864,14.2457L104.864,8.9036C104.864,5.93575 103.875,5.0454 100.808,5.0454C98.0379,5.0454 95.9604,6.33147 95.9604,8.01325C95.9604,8.80468 96.4551,9.29932 97.2465,9.29932C98.0379,9.29932 98.5326,8.80468 98.5326,8.11218L98.5326,7.81539C98.5326,7.61754 98.5326,7.51861 98.5326,7.41968C98.5326,6.4304 99.2251,5.83683 100.313,5.83683C101.698,5.83683 102.193,6.62826 102.193,8.60682L102.193,9.49718C96.9497,11.4757 95.5647,12.465 95.5647,14.5425C95.5647,16.3232 96.7519,17.6093 98.4337,17.6093C99.423,17.6093 100.412,17.1147 101.698,15.8286L101.995,15.5318L102.094,15.3339L102.094,15.3339ZM102.094,14.4435C101.303,15.235 100.709,15.5318 100.017,15.5318C99.0272,15.5318 98.2358,14.7403 98.2358,13.6521C98.2358,12.2671 98.8294,11.7725 102.094,10.2886L102.094,14.4435ZM81.7148,4.13e-05L81.2202,4.13e-05L77.263,1.48396L77.362,1.87967C77.5598,1.78075 77.7577,1.78075 77.8566,1.78075C78.648,1.78075 78.9448,2.27539 78.9448,3.85824L78.9448,16.1253C80.8244,17.1146 81.9127,17.5103 83.2976,17.5103C86.7601,17.5103 89.3323,14.6414 89.3323,10.7832C89.3323,7.41966 87.5516,5.04538 85.1773,5.04538C83.9901,5.04538 82.803,5.73787 82.0116,6.82609L81.7148,7.2218L81.6159,7.41966L81.6159,3.6e-05L81.7148,4.13e-05ZM81.7148,8.11216C82.4073,7.41966 83.0009,7.12288 83.6934,7.12288C85.4741,7.12288 86.6612,9.00252 86.6612,11.7725C86.6612,14.5425 85.573,16.4221 83.8912,16.4221C83.1987,16.4221 82.6052,16.1254 81.7148,15.4329L81.7148,8.11217L81.7148,8.11216ZM62.9184,12.7617C62.127,14.3446 61.0388,15.0371 59.6538,15.0371C57.4774,15.0371 56.0924,13.0585 55.7956,9.79389L63.3141,9.79389C63.1163,6.62819 61.6323,4.9464 58.8623,4.9464C55.6966,4.9464 53.5202,7.61746 53.5202,11.3767C53.5202,14.9382 55.4988,17.3124 58.4666,17.3124C60.9398,17.3124 62.3248,15.9274 63.3141,12.8607L62.9184,12.7617L62.9184,12.7617ZM55.8945,8.90358C55.9934,7.02394 56.9827,5.93573 58.2688,5.93573C59.5549,5.93573 60.3463,6.92501 60.4452,8.90358L55.8945,8.90358ZM51.9373,4.13e-05L51.3437,4.13e-05L47.4855,1.48396L47.5845,1.87967C47.8812,1.78075 47.9802,1.78075 48.178,1.78075C48.9695,1.78075 49.1673,2.27539 49.1673,3.85824L49.1673,5.93573C48.178,5.24323 47.5845,4.94644 46.4963,4.94644C43.5284,4.94644 41.2531,7.81536 41.2531,11.4757C41.2531,14.9382 43.1327,17.4114 45.7048,17.4114C46.9909,17.4114 47.4855,17.1146 49.1673,15.7296C49.1673,16.9168 49.2662,17.0157 50.4534,17.0157L53.4212,17.0157L53.4212,16.62C52.1352,16.62 51.9373,16.2243 51.9373,13.85L51.9373,0L51.9373,4.13e-05ZM49.0684,14.8392C48.178,15.4328 47.6834,15.6307 47.1888,15.6307C45.408,15.6307 44.2209,13.5532 44.2209,10.4864C44.2209,7.61748 45.1113,5.9357 46.4963,5.9357C48.277,5.9357 49.0684,7.22177 49.0684,9.7939L49.0684,14.8392ZM23.8417,15.8285C23.8417,16.9168 23.9406,17.1146 25.1278,17.1146L27.7988,17.1146L27.7988,16.7189C26.8095,16.7189 26.6117,16.3232 26.6117,14.2457L26.6117,8.90356C26.6117,5.93571 25.6224,5.04536 22.4567,5.04536C19.6867,5.04536 17.7081,6.33143 17.7081,8.11214C17.7081,8.90356 18.2028,9.39821 18.9942,9.39821C19.7856,9.39821 20.2803,8.90357 20.2803,8.21107L20.2803,7.81536C20.2803,7.6175 20.2803,7.51857 20.2803,7.41964C20.2803,6.43036 20.9728,5.83679 22.061,5.83679C23.446,5.83679 23.9406,6.62822 23.9406,8.60678L23.9406,9.49714C18.7964,11.3768 17.3124,12.465 17.3124,14.5425C17.3124,16.3232 18.5985,17.6093 20.1814,17.6093C21.2696,17.6093 22.061,17.2135 23.446,15.8285C23.7428,15.6307 23.7428,15.5318 23.8417,15.4328L23.8417,15.8285L23.8417,15.8285ZM23.8417,14.4435C22.9513,15.235 22.4567,15.5318 21.7642,15.5318C20.7749,15.5318 19.9835,14.7403 19.9835,13.6521C19.9835,12.2671 20.7749,11.6735 23.8417,10.2886L23.8417,14.4435ZM12.2671,8.90358L12.2671,14.3446C12.2671,16.1254 11.9703,16.5211 10.2885,16.62L10.2885,17.1146L17.4114,17.1146L17.4114,16.62C15.6307,16.5211 15.4328,16.2243 15.4328,14.0479L15.4328,2.86895C15.4328,1.08824 15.8285,0.593601 17.1146,0.593601L17.4114,0.593601L17.4114,3.13e-05L10.2885,3.13e-05L10.2885,0.494672C11.9703,0.593601 12.2671,0.890385 12.2671,2.57216L12.2671,7.81536L5.04533,7.81536L5.04533,2.67109C5.04533,0.890382 5.44105,0.494672 7.0239,0.494672L7.0239,3.13e-05L-5e-06,3.13e-05L-5e-06,0.494672C1.58284,0.494672 1.97856,0.989313 1.97856,2.67109L1.97856,13.9489C1.97856,16.1253 1.68178,16.521 -5e-06,16.521L-5e-06,17.0157L7.12283,17.0157L7.12283,16.521C5.44105,16.521 5.14426,16.2242 5.14426,14.2457L5.14426,8.90355L12.2671,8.90355L12.2671,8.90358Z" style="fill:rgb(255,140,28);fill-rule:nonzero;"/>
    <path d="M10.5853,19.8533L10.5853,22.4254L3.46246,22.4254L3.46246,25.3933L9.99173,25.3933L9.99173,27.9654L3.46246,27.9654L3.46246,33.5054L-3e-05,33.5054L-3e-05,19.8533L10.5853,19.8533" style="fill:black;fill-rule:nonzero;"/>
    <path d="M18.4007,19.8533L23.446,33.6043L19.7857,33.6043L19.0932,31.4279L14.0479,31.4279L13.3554,33.6043L9.79393,33.6043L14.8393,19.8533L18.4007,19.8533M16.62,23.1179C16.4221,23.8104 16.2243,24.5029 16.0264,25.1954C15.7296,26.1847 15.235,27.8664 14.9382,28.8557L18.4007,28.8557L16.62,23.1179Z" style="fill:black;fill-rule:nonzero;"/>
    <path d="M36.1088,30.4386C35.6142,31.23 35.1195,32.0214 34.0313,32.8129C33.4377,33.2086 32.1517,34 30.1731,34C26.5128,34 23.6438,31.3289 23.6438,26.6793C23.6438,22.6232 26.4138,19.4576 30.272,19.4576C31.8549,19.4576 33.2399,19.9522 34.2292,20.8426C35.2184,21.634 35.6142,22.3265 36.0099,23.019L33.2399,24.404C33.042,23.9093 32.8442,23.5136 32.2506,23.019C31.5581,22.5243 30.9645,22.3265 30.371,22.3265C28.1945,22.3265 27.0074,24.404 27.0074,26.6793C27.0074,29.6472 28.5902,31.23 30.371,31.23C32.1517,31.23 32.8442,29.9439 33.3388,29.1525L36.1088,30.4386" style="fill:black;fill-rule:nonzero;"/>
    <path d="M49.4641,19.8533L49.4641,33.5054L46.0016,33.5054L46.0016,27.6686L40.9563,27.6686L40.9563,33.5054L37.4938,33.5054L37.4938,19.8533L40.9563,19.8533L40.9563,24.7997L46.0016,24.7997L46.0016,19.8533L49.4641,19.8533" style="fill:black;fill-rule:nonzero;"/>
    <path d="M64.6002,33.5054L63.3141,33.5054L63.4131,21.9308L58.9613,33.5054L58.0709,33.5054L53.4213,21.9308L53.6192,33.5054L52.3331,33.5054L52.3331,19.8533L53.9159,19.8533L58.5656,31.4279L62.9184,19.8533L64.6002,19.8533L64.6002,33.5054" style="fill:black;fill-rule:nonzero;"/>
    <path d="M77.1641,33.5054L67.7659,33.5054L67.7659,19.8533L76.6695,19.8533L76.6695,21.0404L69.052,21.0404L69.052,25.8879L75.977,25.8879L75.977,27.0751L69.052,27.0751L69.052,32.3182L77.1641,32.3182L77.1641,33.5054" style="fill:black;fill-rule:nonzero;"/>
    <path d="M79.5383,33.5054L79.5383,19.8533L83.0997,19.8533C84.5836,19.8533 85.8697,19.8533 86.859,20.249C88.8376,21.0404 90.3215,23.4147 90.3215,26.6793C90.3215,29.2515 89.4311,31.4279 87.8483,32.615C86.5622,33.6043 85.3751,33.6043 83.0008,33.6043L79.5383,33.6043M80.8244,32.4171L82.9019,32.4171C83.9901,32.4171 85.5729,32.4171 86.5622,32.0214C87.8483,31.4278 89.0354,29.4492 89.0354,26.7782C89.0354,24.4039 88.1451,22.1285 86.4633,21.436C85.6719,21.1393 84.9794,21.1393 83.2976,21.1393L80.9233,21.1393L80.9233,32.4171L80.8244,32.4171L80.8244,32.4171Z" style="fill:black;fill-rule:nonzero;"/>
    <rect x="92.8937" y="19.8533" width="1.28607" height="13.751" style="fill:black;"/>
    <path d="M106.744,33.5054L97.3458,33.5054L97.3458,19.8533L106.249,19.8533L106.249,21.0404L98.6319,21.0404L98.6319,25.8879L105.557,25.8879L105.557,27.0751L98.6319,27.0751L98.6319,32.3182L106.744,32.3182L106.744,33.5054" style="fill:black;fill-rule:nonzero;"/>
    <path d="M119.703,33.5054L118.417,33.5054L110.305,21.7329L110.305,33.5054L109.019,33.5054L109.019,19.8533L110.305,19.8533L118.516,31.5268L118.417,19.8533L119.703,19.8533L119.703,33.5054" style="fill:black;fill-rule:nonzero;"/>
</svg>
